<svg id="Group_432" data-name="Group 432" xmlns="http://www.w3.org/2000/svg" width="142.577" height="251.325" viewBox="0 0 142.577 251.325">
  <path id="Path_1235" data-name="Path 1235" d="M2481.91,659.173c-15.127,8.162-27.091,51.441-24.98,54.608s18.946,15.428,28.121,20.029,6.216-10.881,6.216-10.881-18.136-14.426-17.44-16.538,7.205-22.167,7.205-22.167Z" transform="translate(-2456.688 -607.775)" fill="#ebaf00"/>
  <path id="Path_1260" data-name="Path 1260" d="M2615.232,983.508H2604.85l-.232-3.826-.47-7.743h9.938l.765,7.743Z" transform="translate(-2521.128 -744.454)" fill="#683834"/>
  <path id="Path_1274" data-name="Path 1274" d="M2511.541,975.848l-.934,5.542-.649,3.826h-10.028l.591-3.826.86-5.542Z" transform="translate(-2475.584 -746.162)" fill="#683834"/>
  <path id="Path_1275" data-name="Path 1275" d="M2501.84,975.848H2512l-.935,5.542h-10.086Z" transform="translate(-2476.043 -746.162)" fill="#de6667"/>
  <path id="Path_1276" data-name="Path 1276" d="M2614.852,979.681h-10.234l-.47-7.743h9.938Z" transform="translate(-2521.128 -744.454)" fill="#de6667"/>
  <path id="Path_1277" data-name="Path 1277" d="M2530.805,801.181s-.322,5.689-.823,12.693c-.607,8.513-1.473,18.969-2.343,23.46-.417,2.159-1.583,6.809-3.077,12.488-4.186,15.865-10.91,39.764-10.91,39.764h-13.723s2.9-39.321,4.1-44.6.391-22.959-.665-35.89,1.583-36.682,1.583-36.682l19.7,2.317,2.729.322.19,1.441,1.388,10.588,1.225,9.315Z" transform="translate(-2475.584 -657.262)" fill="#d75744"/>
  <path id="Path_1278" data-name="Path 1278" d="M2542.962,812.374s-1.583,27.973-3.166,36.154c-.417,2.159-1.584,6.809-3.077,12.488a54.516,54.516,0,0,0-3.256-5.627c-8.186-12.414,3.695-20.584-2.818-31.932s0-25.429,0-25.429l11.69,9.564Z" transform="translate(-2487.742 -668.455)" fill="#98192c" opacity="0.58"/>
  <path id="Path_1279" data-name="Path 1279" d="M2498.393,992.488h10.028s1.584,3.694,3.827,4.486,7.785,1.187,7.785,5.674h-23.619a40.495,40.495,0,0,1,1.056-6.73A22.288,22.288,0,0,0,2498.393,992.488Z" transform="translate(-2474.049 -753.434)" fill="#fdab3f"/>
  <rect id="Rectangle_221" data-name="Rectangle 221" width="23.619" height="2.111" transform="translate(22.365 249.214)" fill="#fff"/>
  <path id="Path_1280" data-name="Path 1280" d="M2586.344,889.587H2570.51s-11.611-44.862-11.875-48.029c-.211-2.523-8.783-17.254-15.338-27.683-1.673-2.671-3.22-5.062-4.455-6.888-3.874-5.727-6.244-15.76-7.453-22.263-.681-3.684-.992-6.239-.992-6.239l10.482-1.99,21.45-4.08s1.853,5.521,4.312,13.259c4.613,14.509,11.364,36.8,12.05,45.063C2579.746,843.4,2586.344,889.587,2586.344,889.587Z" transform="translate(-2488.899 -657.262)" fill="#d75744"/>
  <path id="Path_1281" data-name="Path 1281" d="M2557.833,785.675a40.9,40.9,0,0,1-24.373,1.409c-.3-.079-.591-.164-.876-.248a80.426,80.426,0,0,0-10-2.111c-6.323-1.008-12.34-1.578-12.34-1.578l18.911-8.413,2.729.322.189,1.441,21.45-4.08S2555.374,777.937,2557.833,785.675Z" transform="translate(-2480.092 -657.262)" fill="#98192c" opacity="0.58"/>
  <path id="Path_1282" data-name="Path 1282" d="M2603.961,992.488h10.38s4.662,4.75,9.676,5.278,7.653,1.847,8.972,4.882h-30.876Z" transform="translate(-2520.24 -753.434)" fill="#fdab3f"/>
  <rect id="Rectangle_222" data-name="Rectangle 222" width="30.876" height="2.111" transform="translate(81.875 249.214)" fill="#fff"/>
  <path id="Path_1283" data-name="Path 1283" d="M2517.11,588.427l2.067-4.354a14.857,14.857,0,0,0,4.795-9.1c.528-5.542-7.389-9.9-12.667-4.882s-6.07,15.174-10.16,15.834-9.9,6.2-3.3,10.556c0,0-2.639,4.091,1.847,7.389s6.465,3.431,6.465,3.431,1.851,2.111,2.245.132,2.77-5.674,2.77-5.674Z" transform="translate(-2473.368 -567.88)"/>
  <path id="Path_1284" data-name="Path 1284" d="M2525.4,629.779l2.463,10.908-12.931,1.759V632.154l2.245-5.951,7.45-1.438Z" transform="translate(-2482.139 -592.739)" fill="#683834"/>
  <path id="Path_1285" data-name="Path 1285" d="M2511.648,651.355l.933-4.838s7.067-2.039,13.549-1.133l2.309,4.42Z" transform="translate(-2480.706 -601.648)" fill="#ebaf00"/>
  <path id="Path_1286" data-name="Path 1286" d="M2527.238,596.641s6.07,8.357,7.038,9.5-1.144,2.023-1.847,4.135,1.305,7.213-1.547,8.709-9.1-1.143-11.648-4.662c0,0-3.343.792-5.278-3.079s.791-5.542,3.694-4.31,3.695-.792,3.167-3.431S2527.238,596.641,2527.238,596.641Z" transform="translate(-2481.431 -580.449)" fill="#683834"/>
  <path id="Path_1287" data-name="Path 1287" d="M0,16.442s1.106-5.088,1.634-7.375S3.833.27,5.417.007s-.528,7.125,0,7.828,4.838,1.672,4.926,3.7-2.867,7.86-2.867,7.86Z" transform="translate(134.653 12.367) rotate(40)" fill="#683834"/>
  <path id="Path_1341" data-name="Path 1341" d="M2601.06,897.754c-.049-.426-4.932-42.636-5.454-47.683-.518-5.005-16.1-58.3-16.259-58.837l.829-.242c.644,2.2,15.763,53.908,16.29,58.99.521,5.041,5.4,47.247,5.453,47.673Z" transform="translate(-2510.29 -665.38)" fill="#98192c" opacity="0.58"/>
  <path id="Path_1342" data-name="Path 1342" d="M2617.755,998.071l-.154-.243a22.813,22.813,0,0,1,5.428-2.579l.059.282A23.078,23.078,0,0,0,2617.755,998.071Z" transform="translate(-2527.006 -754.641)" fill="#fff"/>
  <path id="Path_1343" data-name="Path 1343" d="M2623.861,1001.158l-.233-.169a12.253,12.253,0,0,1,3.814-3.448l.121.261A12.2,12.2,0,0,0,2623.861,1001.158Z" transform="translate(-2529.642 -755.642)" fill="#fff"/>
  <path id="Path_1344" data-name="Path 1344" d="M2630.54,1003.14l-.269-.1a15.2,15.2,0,0,1,1.953-3.5l.225.18A14.9,14.9,0,0,0,2630.54,1003.14Z" transform="translate(-2532.543 -756.513)" fill="#fff"/>
  <path id="Path_1345" data-name="Path 1345" d="M2514.473,997.086l-.113-.265a18.25,18.25,0,0,1,3.026-.922l.059.282A17.88,17.88,0,0,0,2514.473,997.086Z" transform="translate(-2481.891 -754.925)" fill="#fff"/>
  <path id="Path_1346" data-name="Path 1346" d="M2517.4,999.961l-.1-.269a27.545,27.545,0,0,0,2.574-1.112l.141.252A27.215,27.215,0,0,1,2517.4,999.961Z" transform="translate(-2483.175 -756.096)" fill="#fff"/>
  <rect id="Rectangle_237" data-name="Rectangle 237" width="1.832" height="0.288" transform="translate(37.276 244.728) rotate(-37.385)" fill="#fff"/>
  <path id="Path_1347" data-name="Path 1347" d="M2523.835,628.046s.219,5.141,6.608,8.277l-.836-4.042Z" transform="translate(-2486.031 -594.173)" fill="#4d211e"/>
  <path id="Path_1348" data-name="Path 1348" d="M2602.094,605.73s-22.785,16.406-33.781,20.725c-10.94,5.774-21.9,7.273-28.457,12.836-2.206,1.869-3.71,3.52-3.932,4.892-.222,1.393,5.632,31.32,6.862,36.244s3.346,12.314,7.743,15.132a94.256,94.256,0,0,1-9.252,2.861c-4.729,1.2-10.408,2.211-14.853,1.71-9.32-1.056-22.342-1.4-26.563-1.056l-4.222.354s.174-21.111-2.993-34.306-7.733-27.092-5.621-32.549,11.147-10.466,15.475-11.084c8.9-1.261,17.945-2.285,27.092-2.813s25.665-6.889,31.185-9.042,31.493-13.324,31.493-13.324Z" transform="translate(-2469.71 -573.191)" fill="#efc342"/>
  <path id="Path_1349" data-name="Path 1349" d="M2584.335,741.556a94.219,94.219,0,0,1-9.252,2.861c-.918-3.626-2.908-8.26-7.183-10.076-7.468-3.166-3.093-8.972,1-16.361s-5.5-16.876-4.536-20.188c1.876-6.465,9.3-12.5,9.3-12.5-2.206,1.869-3.71,3.52-3.932,4.892-.222,1.393,5.632,31.32,6.861,36.244S2579.939,738.738,2584.335,741.556Z" transform="translate(-2503.517 -619.187)" fill="#ebaf00"/>
</svg>
