<svg id="Group_411" data-name="Group 411" xmlns="http://www.w3.org/2000/svg" width="119.994" height="273.864" viewBox="0 0 119.994 273.864">
  <g id="Group_410" data-name="Group 410" transform="translate(0 0)">
    <path id="Path_2249" data-name="Path 2249" d="M1643.618,569.7l3.3-7.836s6.1-6.434,2.639-11.631-18.147-6.434-21.364,12.538c0,0-5.2.166-6.1,5.2s3.629,8.331,5.032,12.044a9.2,9.2,0,0,0,4.537,5.032l5.857.907Z" transform="translate(-1591.156 -526.641)" fill="#0c1b3c"/>
    <path id="Path_2250" data-name="Path 2250" d="M1691.734,770.2s3.464,5.527,4.289,8.5,1.567,3.877.908,4.455-2.31-2.392-3.464-3.877-1.32,3.96-1.32,5.939.951,5.527-.122,5.609-3.838-4.537-4.828-6.434-.545-14.188-.545-14.188Z" transform="translate(-1674.823 -621.64)" fill="#e9928b"/>
    <path id="Path_2251" data-name="Path 2251" d="M1699.89,962.662l2.475,1.856s1.856,7.174.99,9.96H1674.03a17.57,17.57,0,0,1,8.661-5.908c5.815-1.824,7.547-2.443,8.413-4.052S1699.89,962.662,1699.89,962.662Z" transform="translate(-1674.03 -703.522)" fill="#cf6d58"/>
    <path id="Path_2252" data-name="Path 2252" d="M1566.741,960.939l-2.1,2.846s-2.6,6.309-1.485,9.96h24.5a7.659,7.659,0,0,0-4.454-5.908,72.711,72.711,0,0,1-7.672-4.052Z" transform="translate(-1494.235 -702.789)" fill="#cf6d58"/>
    <rect id="Rectangle_340" data-name="Rectangle 340" width="29.324" height="2.909" transform="translate(0 270.955)" fill="#fff"/>
    <rect id="Rectangle_341" data-name="Rectangle 341" width="24.499" height="2.909" transform="translate(68.919 270.955)" fill="#fff"/>
    <path id="Path_2253" data-name="Path 2253" d="M1673.357,956.64h11.264l.782-5.261.822-5.506-12-1.73-.5,7.237Z" transform="translate(-1656.284 -695.643)" fill="#e9928b"/>
    <path id="Path_2254" data-name="Path 2254" d="M1583.985,947.59l.742,5.256.742,5.261h10.888l-.682-5.261L1595,947.59Z" transform="translate(-1515.067 -697.11)" fill="#e9928b"/>
    <path id="Path_2255" data-name="Path 2255" d="M1596.185,947.59h-11.013l.742,5.256h10.948Z" transform="translate(-1516.254 -697.11)" fill="#de6667"/>
    <path id="Path_2256" data-name="Path 2256" d="M1673.357,951.379h11.68l.822-5.506-12-1.73Z" transform="translate(-1655.918 -695.643)" fill="#de6667"/>
    <path id="Path_2257" data-name="Path 2257" d="M1581.7,865.586h17.568s13.61-48.5,15.095-55.436,6.6-22.186,6.6-22.186l13.2,77.622h15.5s.652-37.367,0-49.743c-.517-9.88-3.15-41.389-5.828-57.08a38.97,38.97,0,0,0-2-8.25c-3.215-6.68-42.562,7.673-42.562,7.673s-.271,1.524-.738,4.167c-1.5,8.515-5.07,28.621-8.34,46.565C1585.907,832.422,1581.7,865.586,1581.7,865.586Z" transform="translate(-1567.345 -612.508)" fill="#797d81"/>
    <path id="Path_2258" data-name="Path 2258" d="M1610.631,801.555l5.9-20.87s6.063,11.548,4.331,20.87,5.3,12.747.312,22.684,2.193,17.523-2.648,23.733Z" transform="translate(-1557.014 -626.099)" fill="#626568"/>
    <path id="Path_2259" data-name="Path 2259" d="M1592.347,762.353a35.924,35.924,0,0,0,17.292-.923c15.717-4.358,24.027-3.716,28.008-2.668a38.984,38.984,0,0,0-2-8.25c-3.215-6.68-42.562,7.673-42.562,7.673S1592.814,759.71,1592.347,762.353Z" transform="translate(-1561.162 -612.508)" fill="#626568"/>
    <path id="Path_2260" data-name="Path 2260" d="M1575.586,598.106s.988-5.132-1.238-7.778-7.529,1.473-7.529,1.473-3.434,3.695-1.664,7.165S1575.586,598.106,1575.586,598.106Z" transform="translate(-1483.406 -544.733)" fill="#e9928b"/>
    <path id="Path_2261" data-name="Path 2261" d="M1560.485,649.617c2.156,12.492,5.687,26.393,5.245,32.577-.823,11.549-1.319,15.837-1.981,17.984s9.734,3.957,20.952,0a91.725,91.725,0,0,1,17.934-3.8c6.083-.757,10.772-.978,10.772-.978s-3.134-16.67-4.123-25.411a101.694,101.694,0,0,1,.06-18.806l.015.015c.481.371,12.753,9.754,19.072,3.676a8.943,8.943,0,0,0,2.116-3.581c4.142-12.016-3.776-41.028-3.776-41.028l-9.4,1.319s1.318,22.6.491,22.768-9.734-7.919-14.022-11.053c-2.4-1.755-6.449-2.794-10.712-3.25a49.155,49.155,0,0,0-9.744-.051,57.168,57.168,0,0,0-9.554,1.219c-4.157.883-8.871,2.418-12.387,5.05C1557.767,629.025,1558.6,638.79,1560.485,649.617Z" transform="translate(-1536.035 -553.593)" fill="#5ead65"/>
    <g id="Group_407" data-name="Group 407" transform="translate(24.45 90.412)" opacity="0.65">
      <path id="Path_2262" data-name="Path 2262" d="M1612.816,725.163c-.657,2.146,9.734,3.957,20.952,0a91.717,91.717,0,0,1,17.934-3.8c-2.076-2.583-5.622-5.205-12.984-7.382-18.064-5.351-.823-14.543-11.189-20.562s-11.244-24.428-11.244-24.428l-6.735,5.612c2.156,12.492,5.687,26.394,5.245,32.577C1613.974,718.729,1613.477,723.017,1612.816,725.163Z" transform="translate(-1609.551 -668.99)" fill="#3d9a45"/>
    </g>
    <path id="Path_2263" data-name="Path 2263" d="M1625.865,628.263c4.573,8.556,17.527,16.038,17.527,16.038,2.237-6.465,1.986-14.153,1.77-17.206a49.156,49.156,0,0,0-9.744-.051A57.177,57.177,0,0,0,1625.865,628.263Z" transform="translate(-1588.07 -560.639)" fill="#fff"/>
    <path id="Path_2264" data-name="Path 2264" d="M1691.289,636.245c-2.258-2.509-6.929-.33-12.7,8.084s-10.723,27.056-11.713,33.49.495,28.541,3.629,38.109l8.427-.66s2.132-31.676,2.461-33.821,7.094-19.137,9.9-28.376S1694.259,639.544,1691.289,636.245Z" transform="translate(-1659.614 -564.23)" fill="#5ead65"/>
    <path id="Path_2265" data-name="Path 2265" d="M1629.18,617.512c0,1.239,1.816,3.381,6.269,4.208s9.9-2.392,8.25-4.539a9.627,9.627,0,0,1-1.219-4.092,47.548,47.548,0,0,1-.351-5.888s-9.648-8.992-9.568-4.373-3.38,5.446-3.38,5.446C1630.333,613.385,1629.18,616.273,1629.18,617.512Z" transform="translate(-1588.677 -549.867)" fill="#e9928b"/>
    <path id="Path_2266" data-name="Path 2266" d="M1631.828,602.828c2.573,6.489,6.62,9.177,9.919,10.261a47.534,47.534,0,0,1-.351-5.888S1631.748,598.209,1631.828,602.828Z" transform="translate(-1587.945 -549.867)" fill="#de6667"/>
    <g id="Group_408" data-name="Group 408" transform="translate(68.642)">
      <path id="Path_2267" data-name="Path 2267" d="M1549.6,591.049l13.269,17.08a1.089,1.089,0,0,0,1.527.192,4.5,4.5,0,0,0,.793-6.314l-11.176-14.386Z" transform="translate(-1541.131 -546.737)" fill="#8fb9cf"/>
      <path id="Path_2268" data-name="Path 2268" d="M1553.933,592.921,1567.2,610a1.087,1.087,0,0,0,.724.412,4.5,4.5,0,0,0-.325-5.041l-11.176-14.386Z" transform="translate(-1545.46 -548.608)" fill="#7a9db0"/>
      <path id="Path_2269" data-name="Path 2269" d="M1591.686,585.638c1.951,2.512,4.069,4.132,4.729,3.619s-.385-2.965-2.336-5.478-4.069-4.132-4.73-3.619S1589.735,583.127,1591.686,585.638Z" transform="translate(-1589.151 -542.534)" fill="#8fb9cf"/>
      <rect id="Rectangle_342" data-name="Rectangle 342" width="11.541" height="10.417" transform="matrix(-0.613, -0.79, 0.79, -0.613, 7.265, 46.723)" fill="#8fb9cf"/>
      <path id="Path_2270" data-name="Path 2270" d="M1585.249,584.69l4.808-3.735a.617.617,0,0,0,.109-.865h0a.616.616,0,0,0-.865-.109l-4.808,3.735a.616.616,0,0,0-.109.865h0A.617.617,0,0,0,1585.249,584.69Z" transform="translate(-1580.66 -542.414)" fill="#7a9db0"/>
      <path id="Path_2271" data-name="Path 2271" d="M1589.27,578.63l4.807-3.735a.617.617,0,0,0,.109-.865h0a.616.616,0,0,0-.865-.108l-4.808,3.735a.617.617,0,0,0-.108.865h0A.616.616,0,0,0,1589.27,578.63Z" transform="translate(-1586.465 -539.043)" fill="#7a9db0"/>
      <path id="Path_2272" data-name="Path 2272" d="M1580.438,590l4.808-3.735a.617.617,0,0,0,.109-.865h0a.616.616,0,0,0-.865-.109l-4.808,3.735a.616.616,0,0,0-.109.865h0A.616.616,0,0,0,1580.438,590Z" transform="translate(-1573.715 -545.367)" fill="#7a9db0"/>
      <path id="Path_2273" data-name="Path 2273" d="M1494.088,532.539l.009.012c.282.362.566.7.848,1.025.326.368.648.706.961,1.01,1.308,1.263,2.456,1.922,2.91,1.57l.014.018,35.26-13.055L1513.1,496.106l-21.368,30.937.014.018c-.4.308-.179,1.312.479,2.609.136.269.295.554.469.849s.383.621.6.942C1493.544,531.815,1493.807,532.177,1494.088,532.539Z" transform="translate(-1483.327 -495.824)" fill="#b2d3e4"/>
      <path id="Path_2274" data-name="Path 2274" d="M1517.648,545.4l.009.011,28.764-21.6-3.562-4.585-26,25.1C1517.1,544.68,1517.367,545.042,1517.648,545.4Z" transform="translate(-1506.887 -508.689)" fill="#fff" opacity="0.15"/>
      <path id="Path_2275" data-name="Path 2275" d="M1501.476,555.7c.326.368.648.706.961,1.01l33.782-17.053-5.264-3.781Z" transform="translate(-1489.858 -517.951)" fill="#fff" opacity="0.15"/>
      <path id="Path_2276" data-name="Path 2276" d="M1528.327,537.552l25.284-27.267-1.685-1.539L1527.859,536.7C1527.995,536.972,1528.153,537.257,1528.327,537.552Z" transform="translate(-1518.955 -502.857)" fill="#fff" opacity="0.15"/>
      <path id="Path_2277" data-name="Path 2277" d="M1497.755,512.021a59.705,59.705,0,0,0,4.906,5.592l0,0c4.087,4.078,7.727,6.25,9.137,5.155,1.962-1.524-1.144-8.806-6.939-16.266s-12.085-12.272-14.047-10.747c-1.41,1.1-.205,5.159,2.736,10.128A59.2,59.2,0,0,0,1497.755,512.021Z" transform="translate(-1461.037 -495.471)" fill="#8fb9cf"/>
      <path id="Path_2278" data-name="Path 2278" d="M1539.445,544.1a.581.581,0,0,0-.713-.917c-.5.386-2.605-.319-6.148-3.854l-.284-.283a44.8,44.8,0,0,1-3.383-3.893,43.945,43.945,0,0,1-3.14-4.586c-2.549-4.308-2.711-6.525-2.214-6.911a.581.581,0,1,0-.713-.917c-1.889,1.468.718,6.376,1.927,8.418a47.606,47.606,0,0,0,6.985,8.994l.367.358C1533.98,542.3,1537.681,545.469,1539.445,544.1Z" transform="translate(-1502.495 -510.573)" fill="#8fb9cf"/>
      <path id="Path_2279" data-name="Path 2279" d="M1512.749,524.289a59.688,59.688,0,0,0,4.907,5.592l0,0a7.672,7.672,0,0,0-9.113-11.731A59.2,59.2,0,0,0,1512.749,524.289Z" transform="translate(-1476.031 -507.738)" fill="#7a9db0"/>
      <path id="Path_2280" data-name="Path 2280" d="M1517.087,525.7c.582.749,1.464,1.037,1.971.644s.446-1.32-.136-2.069-1.464-1.038-1.971-.644S1516.505,524.953,1517.087,525.7Z" transform="translate(-1479.753 -511.04)" fill="#fff" opacity="0.15"/>
    </g>
    <path id="Path_2281" data-name="Path 2281" d="M1573.778,604.473s.326-6.951,2.369-9.312,3.759-1.929,3.4,0-1.913,5.319-.4,8.532Z" transform="translate(-1492.445 -546.481)" fill="#e9928b"/>
    <path id="Path_2282" data-name="Path 2282" d="M1598.59,941.358v6.833h-17.3l-1.567-6.833Z" transform="translate(-1514.85 -694.458)" fill="#626568"/>
    <path id="Path_2283" data-name="Path 2283" d="M1684.492,948.191h-19.559l.564-6.833h21.063Z" transform="translate(-1651.78 -694.458)" fill="#626568"/>
    <path id="Path_2284" data-name="Path 2284" d="M1693.518,969.99l.475-.162c-.022-.066-.581-1.632-3.912-2.857l-.174.47C1692.979,968.572,1693.513,969.976,1693.518,969.99Z" transform="translate(-1673.56 -705.356)" fill="#fff"/>
    <path id="Path_2285" data-name="Path 2285" d="M1699.55,972.981l.485-.128a4.952,4.952,0,0,0-3.456-3.29l-.133.484A4.447,4.447,0,0,1,1699.55,972.981Z" transform="translate(-1683.358 -706.458)" fill="#fff"/>
    <path id="Path_2286" data-name="Path 2286" d="M1705.326,973.613l.5-.044a4.47,4.47,0,0,0-1.049-2.421l-.363.345A4.032,4.032,0,0,1,1705.326,973.613Z" transform="translate(-1693.726 -707.133)" fill="#fff"/>
    <path id="Path_2287" data-name="Path 2287" d="M1581.867,968.216a14.76,14.76,0,0,1,5.1-.906l.016-.5a14.991,14.991,0,0,0-5.293.94Z" transform="translate(-1504.368 -705.286)" fill="#fff"/>
    <path id="Path_2288" data-name="Path 2288" d="M1577.416,971.117a15.688,15.688,0,0,1,4.787-1.343l-.03-.5a15.847,15.847,0,0,0-4.959,1.385Z" transform="translate(-1497.023 -706.335)" fill="#fff"/>
    <path id="Path_2289" data-name="Path 2289" d="M1573.267,972.93a7.438,7.438,0,0,1,2.876-1.019l-.075-.5a7.708,7.708,0,0,0-3.136,1.141Z" transform="translate(-1488.503 -707.246)" fill="#fff"/>
    <g id="Group_409" data-name="Group 409" transform="translate(71.004 84.665)" opacity="0.65">
      <path id="Path_2290" data-name="Path 2290" d="M1560.967,658.987c1.74,4.514,2.307,12.924,2.307,12.924l.015.015c.481.371,12.753,9.754,19.072,3.676a8.945,8.945,0,0,0,2.117-3.581c-3.5.482-6.48,4.163-10.617-.11C1567.436,665.276,1560.967,658.987,1560.967,658.987Z" transform="translate(-1560.967 -658.987)" fill="#379690"/>
    </g>
    <path id="Path_2291" data-name="Path 2291" d="M1640.05,572.937s6.846,18.807,1.65,22.6-13.528-4.867-13.528-4.867a6.579,6.579,0,0,1-5.444-2.722c-1.9-2.887,1.4-4.153,2.887-3.231s3.217-.481,2.062-4.028-.495-3.712,1.732-3.217S1639.8,573.927,1640.05,572.937Z" transform="translate(-1584.288 -537.712)" fill="#e9928b"/>
  </g>
  <path id="Path_2292" data-name="Path 2292" d="M1662.046,869.907a724.036,724.036,0,0,1,19.478-96.3l-1.444-.424a725.746,725.746,0,0,0-19.525,96.525Z" transform="translate(-1644.228 -622.907)" fill="#626568"/>
</svg>
