<svg xmlns="http://www.w3.org/2000/svg" width="132.738" height="241.867" viewBox="0 0 132.738 241.867">
  <g id="Group_1494" data-name="Group 1494" transform="translate(-713.695 -1562.725)">
    <g id="Group_431" data-name="Group 431" transform="translate(713.695 1570.01)">
      <path id="Path_1241" data-name="Path 1241" d="M3347.443,635.546a77.164,77.164,0,0,0-15.471-6.58c-8.632-2.551-21.388-9.131-21.388-9.131l-.805,17.59s18.53,11.145,25.512,11.682S3347.443,635.546,3347.443,635.546Z" transform="translate(-3278.91 -605.871)" fill="#2e6de6"/>
      <path id="Path_1243" data-name="Path 1243" d="M3452.264,958.318c-2.011,1.869-8.022,3.553-8.022,3.553a10.931,10.931,0,0,0-1.467-3.389,42.537,42.537,0,0,0-2.412-3.61l8.139-5.949,2.174,5.431Z" transform="translate(-3335.975 -749.683)" fill="#e9928b"/>
      <path id="Path_1244" data-name="Path 1244" d="M3446.965,965.609s4.893,4.2,6.685,8.691l-25.417,11.248s-.091-2.914,5.648-8.095c3.477-3.138,5.137-3.922,5.062-8.294Z" transform="translate(-3330.674 -756.974)" fill="#0c1b3c"/>
      <rect id="Rectangle_205" data-name="Rectangle 205" width="27.804" height="2.417" transform="translate(97.558 228.574) rotate(-23.872)" fill="#8dbcd6"/>
      <path id="Path_1248" data-name="Path 1248" d="M3347.052,970.513l-.254,7.21-.106,2.909c-2.6.892-8.772,0-8.772,0a9.045,9.045,0,0,0,.106-2.909,39.9,39.9,0,0,0-.823-5.061Z" transform="translate(-3290.895 -759.117)" fill="#e9928b"/>
      <path id="Path_1249" data-name="Path 1249" d="M3337.2,972.661l9.849-2.148-.254,7.21h-8.772A39.9,39.9,0,0,0,3337.2,972.661Z" transform="translate(-3290.895 -759.117)" fill="#de6667"/>
      <path id="Path_1250" data-name="Path 1250" d="M3450.675,954.354l-7.9,4.127a42.537,42.537,0,0,0-2.412-3.61l8.139-5.949Z" transform="translate(-3335.975 -749.683)" fill="#de6667"/>
      <path id="Path_1251" data-name="Path 1251" d="M3334.5,988.483s2.775,5.819,2.6,10.652h-27.8s1.1-2.7,8.441-5.116c4.449-1.463,6.285-1.508,7.986-5.536Z" transform="translate(-3278.701 -766.971)" fill="#0c1b3c"/>
      <path id="Path_1255" data-name="Path 1255" d="M3417.93,872.584l-15.122,7.711s-12.741-16.642-22.273-30.275l-.01-.01a1.079,1.079,0,0,0-.069-.1c-.016-.026-.036-.052-.058-.09a144.038,144.038,0,0,1-9.278-14.477c-3.663-7.337-7.015-35.4-8.609-50.6-.628-5.937-.981-9.912-.981-9.912l20.826-3.436,2-.332,5.378-.887s3.135,52.278,4.207,55.677S3417.93,872.584,3417.93,872.584Z" transform="translate(-3301.526 -671.57)" fill="#09517e"/>
      <path id="Path_1256" data-name="Path 1256" d="M3383.63,788.855c-3.431,10.556,1.056,19.792-3.694,36.381-4.323,15.095.348,23.244,1.224,24.584a144.172,144.172,0,0,1-9.278-14.477c-3.663-7.337-7.014-35.4-8.609-50.6l19.845-13.348,1.811-1.219s.08.311.185.887A37.4,37.4,0,0,1,3383.63,788.855Z" transform="translate(-3302.287 -671.57)" fill="#04436a"/>
      <path id="Path_1257" data-name="Path 1257" d="M3333.085,762.677s-8.415,54.427-8.773,60.156,4.655,53.89,4.655,53.89h17.187s-.179-46.549,1.074-54.069c.863-5.175,14.745-33.075,19.767-54.493,2.275-9.7,2.732-18.074-.664-22.4-2.832-3.61-13.732,12.62-13.732,12.62Z" transform="translate(-3285.252 -660.671)" fill="#09517e"/>
      <rect id="Rectangle_206" data-name="Rectangle 206" width="27.804" height="2.417" transform="translate(30.599 232.165)" fill="#8dbcd6"/>
      <path id="Path_1269" data-name="Path 1269" d="M3378.227,634.245l-12.218,3.494-.818-5.267-.792-5.072,10.471-4.7.042.148Z" transform="translate(-3302.779 -607.124)" fill="#e9928b"/>
      <path id="Path_1270" data-name="Path 1270" d="M3374.912,622.851a6.225,6.225,0,0,1-.38,1.013,17.256,17.256,0,0,1-9.342,8.608l-.792-5.072,10.472-4.7Z" transform="translate(-3302.779 -607.124)" fill="#de6667"/>
      <path id="Path_1271" data-name="Path 1271" d="M3383.669,717.55s-2.687.538-15.934,4.476-29.541-.892-29.541-.892-.1-3.014-.137-7.758c-.052-5.521-.031-13.39.291-21.6.163-4.122.4-8.323.744-12.361,1.61-18.98,15.4-32.718,15.4-32.718l12.218-3.494s6.582,2.016,8.91,12.577,1.43,25.244,1.969,30.079S3383.669,717.55,3383.669,717.55Z" transform="translate(-3291.258 -616.084)" fill="#5a8bea"/>
      <path id="Path_1272" data-name="Path 1272" d="M3373.836,668.657a117.866,117.866,0,0,1-3.763,25.366c-3.5,12.693-9.875,12.113-15.507,21.967-4.27,7.479-12.693,8.466-16.509,8.508-.052-5.521-.031-13.39.291-21.6l2.612-.221,14.842-14.694Z" transform="translate(-3291.258 -627.206)" fill="#2e6de6"/>
      <path id="Path_1273" data-name="Path 1273" d="M3361.143,639.52c-1.746.719,1.611,4.86,1.611,4.86a48.128,48.128,0,0,0,13.831-5.263l-1.533-5.273S3365.708,637.64,3361.143,639.52Z" transform="translate(-3301.136 -611.993)" fill="#224da4"/>
      <path id="Path_1326" data-name="Path 1326" d="M3277.9,708.137a47,47,0,0,1-5.17-2.283c-2.887-1.477-6.177-1.41-8.258-2.619s-1.746,2.283,1.276,3.223,1.88,2.685.469,2.753-6.579.47-9.2,0-2.081,1.141-1.88,1.477a8.459,8.459,0,0,0,2.618,3.29c1.678,1.141,6.916,1.343,6.916,1.343s-4.767.6-5.1.6-.939,1.611,1.276,1.746,9.064-1.209,11.078-1.746a20.739,20.739,0,0,1,4.1-.6Z" transform="translate(-3254.951 -642.207)" fill="#e9928b"/>
      <path id="Path_1327" data-name="Path 1327" d="M3297.255,709.156c-.268,0-4.431-1.074-4.431-1.074l-2.484,9.8,5.572,1.678Z" transform="translate(-3270.415 -644.435)" fill="#224da4"/>
      <path id="Path_1328" data-name="Path 1328" d="M3347.685,654.314c-8.782,3.4-20.768,31.331-23.275,32.227s-25.781-2.148-25.781-2.148l-1.97,11.458s23.454,8.952,34.2,6.624,22.2-25.065,24.529-35.27S3350.034,653.4,3347.685,654.314Z" transform="translate(-3273.177 -620.879)" fill="#5a8bea"/>
      <path id="Path_1329" data-name="Path 1329" d="M3359.1,595.032s-7.788,17.322-3.894,22.021,15.442-5.505,15.442-5.505,4.815,1.234,6.311-2.954c.671-1.88-1.074-4.269-4.163-1.933s-4.7-1.961-3.491-5.587-.537-4.968-4.431-5.1A17.6,17.6,0,0,1,3359.1,595.032Z" transform="translate(-3298.283 -595.032)" fill="#e9928b"/>
      <path id="Path_1330" data-name="Path 1330" d="M3345.727,894.465c-.022-.446-2.278-44.722-1.349-54.145s11.11-54.084,11.212-54.535l.842.193c-.1.449-10.272,45.063-11.194,54.427s1.329,53.57,1.352,54.016Z" transform="translate(-3293.931 -678.391)" fill="#04436a"/>
    </g>
    <g id="Group_434" data-name="Group 434" transform="translate(775.346 1562.725) rotate(8)">
      <path id="Path_2335" data-name="Path 2335" d="M70.827,53.765C66.6,62.232,49.615,65.289,45.039,55.252c-5.326-11.675-8.705-8.808-17.513-8.193s-15.055-4.1-14.338-14.133c.713-9.955-6.136-11.015-8.058-20.02-.033-.143-.049-.225-.049-.225C4.422,9.4,1,8.552,1,8.552S-1.252,7.015,1,3.431,17.695-3.124,21.074,6.4,24.147,20.739,35,20.227,52.925,23.811,53.642,33.95s17.411,3.585,18.128,15.26A8.847,8.847,0,0,1,70.827,53.765Z" transform="translate(0 0)" fill="#0c1b3c"/>
      <path id="Path_2336" data-name="Path 2336" d="M65.7,40.859c-4.224,8.468-21.212,11.524-25.788,1.487C34.583,30.671,31.2,33.538,22.4,34.153S7.341,30.056,8.058,20.02C8.771,10.065,1.922,9,0,0,.283,1.192,1.864,6.723,7.087,8.435c5.87,1.921,11.2,7.423,8.328,13.686s8,5.309,15.809-1.59,13.687,4.3,12.458,14.133C42.539,43.8,56.967,49.212,65.7,40.859Z" transform="translate(5.13 12.906)"/>
    </g>
  </g>
</svg>
